<svg width="120" height="120" viewBox="0 0 120 120" fill="none" xmlns="http://www.w3.org/2000/svg">
<mask id="mask0_425_2" style="mask-type:luminance" maskUnits="userSpaceOnUse" x="6" y="26" width="109" height="64">
<path d="M115 26H6V90H115V26Z" fill="white"/>
</mask>
<g mask="url(#mask0_425_2)">
<mask id="mask1_425_2" style="mask-type:luminance" maskUnits="userSpaceOnUse" x="6" y="26" width="109" height="64">
<path d="M6 26H115V90H6V26Z" fill="white"/>
</mask>
<g mask="url(#mask1_425_2)">
<path d="M61.0726 26C55.8157 25.9974 50.7733 28.1128 47.0543 31.8808C43.3354 35.6489 41.2447 40.7608 41.2422 46.0922C41.2397 51.4235 43.3255 56.5374 47.0409 60.3091C50.7562 64.0807 55.7967 66.2011 61.0535 66.2036C66.3102 66.2062 71.3527 64.0908 75.0717 60.3229C78.7906 56.5548 80.8812 51.4429 80.8838 46.1115C80.8863 40.7802 78.8005 35.6662 75.0852 31.8945C71.3699 28.1229 66.3294 26.0026 61.0726 26ZM43.9577 45.7818C43.9577 45.7818 43.5369 34.1455 54.8577 29.6073C48.7766 35.4642 46.6922 37.0158 43.9577 45.7818Z" fill="#0055A2"/>
<path d="M13.2341 40.5743C25.6652 56.7655 42.3867 66.6846 60.7937 66.6846C79.2008 66.6846 95.9223 56.7655 108.373 40.5743H115V90.6143H32.9245C83.0316 86.1758 106.304 50.6672 108.966 43.7971L112.089 43.855H108.794C108.794 43.855 91.5552 69.6566 59.7977 69.6566C28.0402 69.6566 12.5063 43.855 12.5063 43.855C10.6101 43.662 8.867 44.0287 8.867 44.0287V90.6337H6.62598V40.5743H13.2533H13.2341Z" fill="#E20613"/>
</g>
</g>
</svg>
